<svg t="1660532863137" class="icon" viewBox="0 0 1024 1024" version="1.1" xmlns="http://www.w3.org/2000/svg" p-id="2065" width="200" height="200"><path fill="currentColor"  d="M928 95.99H98c-17.67 0-32 14.33-32 32s14.33 32 32 32h62.03v463.83c0 61.98 50.42 112.4 112.4 112.4h31.06c62.08 0 112.58-50.5 112.58-112.58V159.99h192.05v682.63c0 64.84 52.75 117.61 117.59 117.63l21.31 0.01h0.05c31.26 0 60.66-12.17 82.78-34.28 22.13-22.12 34.31-51.53 34.31-82.81V159.99H928c17.67 0 32-14.33 32-32s-14.33-32-32-32zM303.5 672.22h-31.06c-26.69 0-48.4-21.71-48.4-48.4v-79.14c2.69 1.35 5.71 2.13 8.92 2.13 11.03 0 20-8.97 20-20s-8.97-20-20-20c-3.21 0-6.23 0.78-8.92 2.13V331.92c7.55 4.35 16.85 8.3 32.01 8.3 18.87 0 28.66-6.12 37.31-11.52 7.58-4.74 13.57-8.48 26.71-8.48s19.13 3.74 26.71 8.48c1.7 1.06 3.45 2.15 5.31 3.22v79.82c-3.67-4.24-9.08-6.94-15.12-6.94-11.03 0-20 8.97-20 20s8.97 20 20 20c6.04 0 11.45-2.7 15.12-6.94v185.79c-0.02 26.78-21.81 48.57-48.59 48.57z m48.57-363.69c-7.55-4.35-16.85-8.31-32.01-8.31-18.87 0-28.67 6.12-37.31 11.52-7.58 4.74-13.57 8.48-26.71 8.48s-19.12-3.74-26.71-8.48c-1.7-1.06-3.45-2.15-5.3-3.22V159.99h128.04v148.54zM784.6 880.72c-10.03 10.02-23.35 15.54-37.53 15.54h-0.02l-21.31-0.01c-29.56-0.01-53.61-24.07-53.61-53.63V593.59c3.13 2.02 6.84 3.21 10.83 3.21 11.03 0 20-8.97 20-20s-8.97-20-20-20c-3.99 0-7.71 1.19-10.83 3.21V331.34c4.31 1.41 8.2 3.03 12.16 4.68 12.12 5.05 25.85 10.77 51.85 10.77s39.74-5.72 51.86-10.77c3.96-1.65 7.85-3.27 12.16-4.68v87.24a19.92 19.92 0 0 0-8.2-1.78c-11.03 0-20 8.97-20 20s8.97 20 20 20c2.93 0 5.7-0.65 8.2-1.78v275.04a19.81 19.81 0 0 0-9.2-2.26c-11.03 0-20 8.97-20 20s8.97 20 20 20c3.32 0 6.45-0.83 9.2-2.26v77.63c0 14.19-5.52 27.52-15.56 37.55z m15.56-570.22c-7.79 2.03-14.01 4.62-19.85 7.05-11.4 4.75-22.16 9.23-44.16 9.23s-32.77-4.48-44.16-9.23c-5.84-2.43-12.07-5.02-19.86-7.05V159.99h128.04V310.5z" p-id="2066"></path></svg>