<svg t="1661048804429" class="icon" viewBox="0 0 1024 1024" version="1.1" xmlns="http://www.w3.org/2000/svg" p-id="3434" width="200" height="200"><path d="M712 16H328c-17.6 0-32 14.4-32 32v88c0 17.6 14.4 32 32 32h48.8c0 4-0.8 8.8-0.8 12.8v669.6c0 86.4 64.8 156.8 144 156.8h8c79.2 0 144-70.4 144-156.8V180.8c0-4 0-8.8-0.8-12.8H712c17.6 0 32-14.4 32-32V48c0-17.6-14.4-32-32-32z m-56 835.2c0 77.6-57.6 140.8-128 140.8h-8c-70.4 0-128-63.2-128-140.8V748.8c0-21.6 6.4-37.6 16-48v-520c0-4 0-8.8 0.8-12.8H576c0-8.8 7.2-16 16-16s16 7.2 16 16h31.2c0 4 0.8 8.8 0.8 12.8v525.6c9.6 6.4 16 18.4 16 42.4v102.4zM712 136H328V48h384v88z" fill="currentColor" p-id="3435"></path><path d="M640 707.2c-8.8-5.6-20-6.4-32-4.8V776c0 8.8-7.2 16-16 16s-16-7.2-16-16v-70.4c-8.8 0.8-16.8 0.8-24-1.6-35.2-11.2-33.6-18.4-56-24-16-4-63.2-7.2-88 20.8-9.6 11.2-16 26.4-16 48v101.6c0 77.6 57.6 140.8 128 140.8h8c70.4 0 128-63.2 128-140.8V748.8c0-23.2-6.4-36-16-41.6z" fill="currentColor" p-id="3436"></path><path d="M576 776c0 8.8 7.2 16 16 16s16-7.2 16-16V168c0-8.8-7.2-16-16-16s-16 7.2-16 16v608zM526.4 232h36c4.8 0 8-3.2 8-8s-3.2-8-8-8h-36c-4.8 0-8 3.2-8 8s3.2 8 8 8zM526.4 304h36c4.8 0 8-3.2 8-8s-3.2-8-8-8h-36c-4.8 0-8 3.2-8 8s3.2 8 8 8zM526.4 376h36c4.8 0 8-3.2 8-8s-3.2-8-8-8h-36c-4.8 0-8 3.2-8 8s3.2 8 8 8zM526.4 448h36c4.8 0 8-3.2 8-8s-3.2-8-8-8h-36c-4.8 0-8 3.2-8 8s3.2 8 8 8zM526.4 520h36c4.8 0 8-3.2 8-8s-3.2-8-8-8h-36c-4.8 0-8 3.2-8 8s3.2 8 8 8zM526.4 592h36c4.8 0 8-3.2 8-8s-3.2-8-8-8h-36c-4.8 0-8 3.2-8 8s3.2 8 8 8z" fill="currentColor" p-id="3437"></path></svg>