<svg t="1660817226300" class="icon" viewBox="0 0 1024 1024" version="1.1" xmlns="http://www.w3.org/2000/svg" p-id="2584" width="200" height="200"><path d="M806.4 409.6C748.8 518.4 640 595.2 512 595.2S275.2 518.4 217.6 409.6c-32 51.2-44.8 108.8-44.8 166.4 0 192 153.6 364.8 339.2 364.8S851.2 768 851.2 576c0-57.6-12.8-115.2-44.8-166.4z" fill="#ffffff" opacity=".1" p-id="2585"></path><path d="M512 940.8C326.4 940.8 172.8 768 172.8 576c0-128 96-249.6 172.8-332.8 32-44.8 70.4-83.2 115.2-115.2 12.8-12.8 25.6-19.2 32-25.6 12.8-6.4 25.6-6.4 38.4 0 6.4 6.4 19.2 12.8 32 25.6 44.8 38.4 83.2 70.4 115.2 108.8C761.6 320 851.2 448 851.2 576c0 192-153.6 364.8-339.2 364.8zM512 166.4c-6.4 0-6.4 6.4-12.8 12.8-38.4 32-76.8 64-108.8 102.4C320 358.4 236.8 467.2 236.8 576c0 166.4 128 300.8 275.2 300.8s275.2-140.8 275.2-300.8c0-102.4-83.2-217.6-153.6-294.4-32-38.4-70.4-70.4-108.8-102.4-6.4-6.4-6.4-12.8-12.8-12.8z" fill="#ffffff" p-id="2586"></path></svg>