<svg t="1661585750489" class="icon" viewBox="0 0 1024 1024" version="1.1" xmlns="http://www.w3.org/2000/svg" p-id="2671" width="200" height="200"><path d="M887 915.9H137c-19.3 0-35-15.7-35-35V143.1c0-19.3 15.7-35 35-35s35 15.7 35 35v702.8h715c19.3 0 35 15.7 35 35s-15.7 35-35 35z" fill="currentColor" p-id="2672"></path><path d="M295.6 598.6c-8.8 0-17.6-3.3-24.4-9.9-13.9-13.5-14.2-35.6-0.8-49.5l160.2-165.3c6.7-6.9 15.8-10.7 25.4-10.6s18.7 4.1 25.2 11l129.9 138.3L752.6 364c13.3-14 35.5-14.5 49.5-1.2s14.5 35.5 1.2 49.5l-167 175.4c-6.6 6.9-15.8 10.9-25.3 10.9h-0.1c-9.6 0-18.8-4-25.4-11L455.4 449 320.7 588c-6.8 7-16 10.6-25.1 10.6z" fill="currentColor" p-id="2673"></path></svg>